# xmcd CD database file
#
# Track frame offsets:
#	150
#	17990
#	40070
#	64827
#	77432
#	95675
#	113145
#	128802
#	146680
#	159107
#	176277
#
# Disc length: 2847 seconds
#
# Revision: 0
# Processed by: cddbd v1.5.2PL0 Copyright (c) Steve Scherf et al.
# Submitted via: CDex 1.51
#
DISCID=850b1d0b
DTITLE=Swing's The Thing - Chompin' At The Bit
DYEAR=1995
DGENRE=Jazz
TTITLE0=It Don't Mean a Thing
TTITLE1=Avalon
TTITLE2=After You've Gone
TTITLE3=My Silent Love
TTITLE4=Runnin' Wild
TTITLE5=As Time Goes By
TTITLE6=Kidney Stew Blues
TTITLE7=I Can't Believe That Your In Love With Me
TTITLE8=Lover, Come Back to Me
TTITLE9=Coquette
TTITLE10=Caravan
EXTD=YEAR: 1995
EXTT0=
EXTT1=
EXTT2=
EXTT3=
EXTT4=
EXTT5=
EXTT6=
EXTT7=
EXTT8=
EXTT9=
EXTT10=
PLAYORDER=
